<?xml version="1.0" encoding="UTF-8" standalone="no"?>
<svg width="360px" height="478px" viewBox="0 0 360 478" version="1.1" xmlns="http://www.w3.org/2000/svg" xmlns:xlink="http://www.w3.org/1999/xlink">
    <!-- Generator: sketchtool 40.3 (33839) - http://www.bohemiancoding.com/sketch -->
    <title>F139C3D2-9973-4C04-BA80-ECEFBEF60F6F</title>
    <desc>Created with sketchtool.</desc>
    <defs>
        <rect id="path-1" x="0" y="0" width="397" height="578"></rect>
    </defs>
    <g id="LSP" stroke="none" stroke-width="1" fill="none" fill-rule="evenodd" opacity="0.680153918">
        <g id="Desktop-LSP" transform="translate(-225.000000, -1160.000000)">
            <g id="галочки" transform="translate(225.000000, 1159.000000)">
                <g id="ill1">
                    <mask id="mask-2" fill="white">
                        <use xlink:href="#path-1"></use>
                    </mask>
                    <use id="Mask" fill="#D8D8D8" opacity="0" xlink:href="#path-1"></use>
                    <path d="M302,47 L160,47" id="Line" stroke="#673AB7" stroke-width="2" stroke-linecap="round" stroke-dasharray="2,8" mask="url(#mask-2)"></path>
                    <path d="M296,224 L89.9245403,224" id="Line-Copy-5" stroke="#673AB7" stroke-width="2" stroke-linecap="round" stroke-dasharray="2,8" mask="url(#mask-2)"></path>
                    <path d="M266,339 L91.9239023,339" id="Line-Copy-6" stroke="#673AB7" stroke-width="2" stroke-linecap="round" stroke-dasharray="2,8" mask="url(#mask-2)"></path>
                    <g id="Group" mask="url(#mask-2)">
                        <g transform="translate(161.000000, 133.000000)">
                            <path d="M91.9680443,5.24489796 L3.03752911,5.24489796 C2.09338354,5.24489796 1.3278481,6.00969898 1.3278481,6.95293878 L1.3278481,10.5887398 C1.3278481,11.5319796 2.09338354,12.2967806 3.03752911,12.2967806 L91.9680443,12.2967806 C92.9121899,12.2967806 93.6777253,11.5319796 93.6777253,10.5887398 L93.6777253,6.95293878 C93.6777253,6.00969898 92.9121899,5.24489796 91.9680443,5.24489796" id="Fill-92" fill="#FFFFFF"></path>
                            <path d="M3.00376203,6.50906122 C2.5323557,6.50906122 2.14892152,6.89212755 2.14892152,7.36352551 L2.14892152,10.9988827 C2.14892152,11.4693929 2.5323557,11.8529031 3.00376203,11.8529031 L91.9342772,11.8529031 C92.4056835,11.8529031 92.7891177,11.4693929 92.7891177,10.9988827 L92.7891177,7.36352551 C92.7891177,6.89212755 92.4056835,6.50906122 91.9342772,6.50906122 L3.00376203,6.50906122 L3.00376203,6.50906122 Z M91.9342772,13.5605 L3.00376203,13.5605 C1.58954304,13.5605 0.439240506,12.4117449 0.439240506,10.9988827 L0.439240506,7.36352551 C0.439240506,5.95066327 1.58954304,4.80102041 3.00376203,4.80102041 L91.9342772,4.80102041 C93.3480519,4.80102041 94.4987987,5.95066327 94.4987987,7.36352551 L94.4987987,10.9988827 C94.4987987,12.4117449 93.3480519,13.5605 91.9342772,13.5605 L91.9342772,13.5605 Z" id="Fill-93" fill="#673AB7"></path>
                            <path d="M9.29066076,1.25 L5.32036203,1.25 C4.83296076,1.25 4.43797468,1.64460714 4.43797468,2.13154082 L4.43797468,4.11478571 C4.43797468,4.60127551 4.83296076,4.99632653 5.32036203,4.99632653 L9.29066076,4.99632653 C9.77806203,4.99632653 10.1730481,4.60127551 10.1730481,4.11478571 L10.1730481,2.13154082 C10.1730481,1.64460714 9.77806203,1.25 9.29066076,1.25" id="Fill-94" fill="#FFFFFF"></path>
                            <path d="M5.31414177,2.12577041 L5.31414177,4.10857143 L9.28577342,4.10857143 L9.28444051,2.12577041 L5.31414177,2.12577041 L5.31414177,2.12577041 Z M9.28444051,5.87209694 L5.31414177,5.87209694 C4.34111646,5.87209694 3.54936709,5.08110714 3.54936709,4.10857143 L3.54936709,2.12577041 C3.54936709,1.15323469 4.34111646,0.362244898 5.31414177,0.362244898 L9.28444051,0.362244898 C10.2574658,0.362244898 11.0492152,1.15323469 11.0492152,2.12577041 L11.0492152,4.10857143 C11.0492152,5.08110714 10.2574658,5.87209694 9.28444051,5.87209694 L9.28444051,5.87209694 Z" id="Fill-95" fill="#673AB7"></path>
                            <path d="M17.7324329,1.25 L13.7621342,1.25 C13.2747329,1.25 12.8797468,1.64460714 12.8797468,2.13154082 L12.8797468,4.11478571 C12.8797468,4.60127551 13.2747329,4.99632653 13.7621342,4.99632653 L17.7324329,4.99632653 C18.2198342,4.99632653 18.6148203,4.60127551 18.6148203,4.11478571 L18.6148203,2.13154082 C18.6148203,1.64460714 18.2198342,1.25 17.7324329,1.25" id="Fill-96" fill="#FFFFFF"></path>
                            <path d="M13.7559139,2.12577041 L13.7559139,4.10857143 L17.7271013,4.10857143 L17.726657,2.12577041 L13.7559139,2.12577041 L13.7559139,2.12577041 Z M17.7262127,5.87209694 L13.7559139,5.87209694 C12.7828886,5.87209694 11.9911392,5.08110714 11.9911392,4.10857143 L11.9911392,2.12577041 C11.9911392,1.15323469 12.7828886,0.362244898 13.7559139,0.362244898 L17.7262127,0.362244898 C18.699238,0.362244898 19.4909873,1.15323469 19.4909873,2.12577041 L19.4909873,4.10857143 C19.4909873,5.08110714 18.699238,5.87209694 17.7262127,5.87209694 L17.7262127,5.87209694 Z" id="Fill-97" fill="#673AB7"></path>
                            <path d="M26.6185089,1.25 L22.6482101,1.25 C22.1608089,1.25 21.7658228,1.64460714 21.7658228,2.13154082 L21.7658228,4.11478571 C21.7658228,4.60127551 22.1608089,4.99632653 22.6482101,4.99632653 L26.6185089,4.99632653 C27.1059101,4.99632653 27.5008962,4.60127551 27.5008962,4.11478571 L27.5008962,2.13154082 C27.5008962,1.64460714 27.1059101,1.25 26.6185089,1.25" id="Fill-98" fill="#FFFFFF"></path>
                            <path d="M22.6419899,2.12577041 L22.6419899,4.10857143 L26.6136215,4.10857143 L26.6122886,2.12577041 L22.6419899,2.12577041 L22.6419899,2.12577041 Z M26.6122886,5.87209694 L22.6419899,5.87209694 C21.6689646,5.87209694 20.8772152,5.08110714 20.8772152,4.10857143 L20.8772152,2.12577041 C20.8772152,1.15323469 21.6689646,0.362244898 22.6419899,0.362244898 L26.6122886,0.362244898 C27.5853139,0.362244898 28.3770633,1.15323469 28.3770633,2.12577041 L28.3770633,4.10857143 C28.3770633,5.08110714 27.5853139,5.87209694 26.6122886,5.87209694 L26.6122886,5.87209694 Z" id="Fill-99" fill="#673AB7"></path>
                            <path d="M70.2091544,1.25 L31.5342861,1.25 C31.0468848,1.25 30.6518987,1.64460714 30.6518987,2.13154082 L30.6518987,4.11478571 C30.6518987,4.60127551 31.0468848,4.99632653 31.5342861,4.99632653 L70.2091544,4.99632653 C70.6965557,4.99632653 71.0915418,4.60127551 71.0915418,4.11478571 L71.0915418,2.13154082 C71.0915418,1.64460714 70.6965557,1.25 70.2091544,1.25" id="Fill-100" fill="#FFFFFF"></path>
                            <path d="M31.5280658,2.12577041 L31.5280658,4.10857143 L70.2042671,4.10857143 L70.2029342,2.12577041 L31.5280658,2.12577041 L31.5280658,2.12577041 Z M70.2029342,5.87209694 L31.5280658,5.87209694 C30.5550405,5.87209694 29.7632911,5.08110714 29.7632911,4.10857143 L29.7632911,2.12577041 C29.7632911,1.15323469 30.5550405,0.362244898 31.5280658,0.362244898 L70.2029342,0.362244898 C71.1759595,0.362244898 71.9677089,1.15323469 71.9677089,2.12577041 L71.9677089,4.10857143 C71.9677089,5.08110714 71.1759595,5.87209694 70.2029342,5.87209694 L70.2029342,5.87209694 Z" id="Fill-101" fill="#673AB7"></path>
                            <path d="M79.046357,1.25 L75.0760582,1.25 C74.588657,1.25 74.1936709,1.64460714 74.1936709,2.13154082 L74.1936709,4.11478571 C74.1936709,4.60127551 74.588657,4.99632653 75.0760582,4.99632653 L79.046357,4.99632653 C79.5337582,4.99632653 79.9287443,4.60127551 79.9287443,4.11478571 L79.9287443,2.13154082 C79.9287443,1.64460714 79.5337582,1.25 79.046357,1.25" id="Fill-102" fill="#FFFFFF"></path>
                            <path d="M75.069838,2.12577041 L75.069838,4.10857143 L79.0414696,4.10857143 L79.0401367,2.12577041 L75.069838,2.12577041 L75.069838,2.12577041 Z M79.0401367,5.87209694 L75.069838,5.87209694 C74.0968127,5.87209694 73.3050633,5.08110714 73.3050633,4.10857143 L73.3050633,2.12577041 C73.3050633,1.15323469 74.0968127,0.362244898 75.069838,0.362244898 L79.0401367,0.362244898 C80.013162,0.362244898 80.8049114,1.15323469 80.8049114,2.12577041 L80.8049114,4.10857143 C80.8049114,5.08110714 80.013162,5.87209694 79.0401367,5.87209694 L79.0401367,5.87209694 Z" id="Fill-103" fill="#673AB7"></path>
                            <path d="M88.3767367,1.25 L84.406438,1.25 C83.9190367,1.25 83.5240506,1.64460714 83.5240506,2.13154082 L83.5240506,4.11478571 C83.5240506,4.60127551 83.9190367,4.99632653 84.406438,4.99632653 L88.3767367,4.99632653 C88.864138,4.99632653 89.2591241,4.60127551 89.2591241,4.11478571 L89.2591241,2.13154082 C89.2591241,1.64460714 88.864138,1.25 88.3767367,1.25" id="Fill-104" fill="#FFFFFF"></path>
                            <path d="M84.4002177,2.12577041 L84.4002177,4.10857143 L88.3718494,4.10857143 L88.3705165,2.12577041 L84.4002177,2.12577041 L84.4002177,2.12577041 Z M88.3705165,5.87209694 L84.4002177,5.87209694 C83.4271924,5.87209694 82.635443,5.08110714 82.635443,4.10857143 L82.635443,2.12577041 C82.635443,1.15323469 83.4271924,0.362244898 84.4002177,0.362244898 L88.3705165,0.362244898 C89.3435418,0.362244898 90.1352911,1.15323469 90.1352911,2.12577041 L90.1352911,4.10857143 C90.1352911,5.08110714 89.3435418,5.87209694 88.3705165,5.87209694 L88.3705165,5.87209694 Z" id="Fill-105" fill="#673AB7"></path>
                        </g>
                    </g>
                    <path d="M143.598673,138.244898 L129.923003,138.244898 C128.9482,138.244898 128.158228,139.034112 128.158228,140.00798 L128.158228,143.533699 C128.158228,144.507566 128.9482,145.296781 129.923003,145.296781 L143.598673,145.296781 C144.573476,145.296781 145.363448,144.507566 145.363448,143.533699 L145.363448,140.00798 C145.363448,139.034112 144.573476,138.244898 143.598673,138.244898" id="Fill-106" fill="#FFFFFF" mask="url(#mask-2)"></path>
                    <path d="M129.889235,139.509061 C129.387616,139.509061 128.979301,139.916985 128.979301,140.418122 L128.979301,143.943842 C128.979301,144.44498 129.387616,144.852903 129.889235,144.852903 L143.565351,144.852903 C144.06697,144.852903 144.475285,144.44498 144.475285,143.943842 L144.475285,140.418122 C144.475285,139.916985 144.06697,139.509061 143.565351,139.509061 L129.889235,139.509061 L129.889235,139.509061 Z M143.565351,146.5605 L129.889235,146.5605 C128.444804,146.5605 127.26962,145.386888 127.26962,143.943842 L127.26962,140.418122 C127.26962,138.975077 128.444804,137.80102 129.889235,137.80102 L143.565351,137.80102 C145.009782,137.80102 146.184522,138.975077 146.184522,140.418122 L146.184522,143.943842 C146.184522,145.386888 145.009782,146.5605 143.565351,146.5605 L143.565351,146.5605 Z" id="Fill-107" fill="#673AB7" mask="url(#mask-2)"></path>
                    <path d="M108.206766,138.244898 L53.5027494,138.244898 C52.5279468,138.244898 51.7379747,139.034112 51.7379747,140.00798 L51.7379747,143.533699 C51.7379747,144.507566 52.5279468,145.296781 53.5027494,145.296781 L108.206766,145.296781 C109.181124,145.296781 109.971096,144.507566 109.971096,143.533699 L109.971096,140.00798 C109.971096,139.034112 109.181124,138.244898 108.206766,138.244898" id="Fill-140" fill="#FFFFFF" mask="url(#mask-2)"></path>
                    <path d="M53.4965291,139.120224 C53.0095722,139.120224 52.6141418,139.515719 52.6141418,140.001765 L52.6141418,143.527485 C52.6141418,144.013531 53.0095722,144.408582 53.4965291,144.408582 L108.200546,144.408582 C108.687058,144.408582 109.082489,144.013531 109.082489,143.527485 L109.082489,140.001765 C109.082489,139.515719 108.687058,139.120224 108.200546,139.120224 L53.4965291,139.120224 L53.4965291,139.120224 Z M108.200546,146.172107 L53.4965291,146.172107 C52.0365468,146.172107 50.8493671,144.985622 50.8493671,143.527485 L50.8493671,140.001765 C50.8493671,138.543184 52.0365468,137.357143 53.4965291,137.357143 L108.200546,137.357143 C109.660084,137.357143 110.847708,138.543184 110.847708,140.001765 L110.847708,143.527485 C110.847708,144.985622 109.660084,146.172107 108.200546,146.172107 L108.200546,146.172107 Z" id="Fill-141" fill="#673AB7" mask="url(#mask-2)"></path>
                    <path d="M156.82382,119.214092 L5.50549873,119.214092 C3.55633797,119.214092 1.97594937,117.635663 1.97594937,115.688372 L1.97594937,5.94453061 C1.97594937,3.9972398 3.55633797,2.41836735 5.50549873,2.41836735 L156.82382,2.41836735 C158.772981,2.41836735 160.35337,3.9972398 160.35337,5.94453061 L160.35337,115.688372 C160.35337,117.635663 158.772981,119.214092 156.82382,119.214092" id="Fill-142" fill="#FFFFFF" mask="url(#mask-2)"></path>
                    <path d="M5.49927848,3.29413776 C4.03974051,3.29413776 2.85211646,4.48017857 2.85211646,5.93831633 L2.85211646,115.682158 C2.85211646,117.140296 4.03974051,118.326781 5.49927848,118.326781 L156.8176,118.326781 C158.277138,118.326781 159.464318,117.140296 159.464318,115.682158 L159.464318,5.93831633 C159.464318,4.48017857 158.277138,3.29413776 156.8176,3.29413776 L5.49927848,3.29413776 L5.49927848,3.29413776 Z M156.8176,120.089862 L5.49927848,120.089862 C3.06671519,120.089862 1.08734177,118.112388 1.08734177,115.682158 L1.08734177,5.93831633 C1.08734177,3.50808673 3.06671519,1.53061224 5.49927848,1.53061224 L156.8176,1.53061224 C159.250163,1.53061224 161.229092,3.50808673 161.229092,5.93831633 L161.229092,115.682158 C161.229092,118.112388 159.250163,120.089862 156.8176,120.089862 L156.8176,120.089862 Z" id="Fill-143" fill="#673AB7" mask="url(#mask-2)"></path>
                    <path d="M301,460 L91.9239023,460" id="Line-Copy-7" stroke="#673AB7" stroke-width="2" stroke-linecap="round" stroke-dasharray="2,8" mask="url(#mask-2)"></path>
                    <path d="M156.82382,119.041867 L5.50549873,119.041867 C3.55633797,119.041867 1.97594937,117.463439 1.97594937,115.516148 L1.97594937,102.734694 L160.35337,102.734694 L160.35337,115.516148 C160.35337,117.463439 158.772981,119.041867 156.82382,119.041867" id="Fill-144" fill="#FFFFFF" mask="url(#mask-2)"></path>
                    <path d="M2.85211646,103.61002 L2.85211646,115.509934 C2.85211646,116.968071 4.03974051,118.154112 5.49927848,118.154112 L156.8176,118.154112 C158.277138,118.154112 159.464318,116.968071 159.464318,115.509934 L159.464318,103.61002 L2.85211646,103.61002 L2.85211646,103.61002 Z M156.8176,119.917638 L5.49927848,119.917638 C3.06671519,119.917638 1.08734177,117.940163 1.08734177,115.509934 L1.08734177,101.846939 L161.229092,101.846939 L161.229092,115.509934 C161.229092,117.940163 159.250163,119.917638 156.8176,119.917638 L156.8176,119.917638 Z" id="Fill-145" fill="#673AB7" mask="url(#mask-2)"></path>
                    <path d="M149.809152,96.7805204 L11.7257519,96.7805204 C9.77659114,96.7805204 8.19620253,95.201648 8.19620253,93.2543571 L8.19620253,12.1588163 C8.19620253,10.2115255 9.77659114,8.63265306 11.7257519,8.63265306 L149.809152,8.63265306 C151.758313,8.63265306 153.338701,10.2115255 153.338701,12.1588163 L153.338701,93.2543571 C153.338701,95.201648 151.758313,96.7805204 149.809152,96.7805204" id="Fill-146" fill="#FFFFFF" mask="url(#mask-2)"></path>
                    <path d="M11.7195316,9.50842347 C10.2599937,9.50842347 9.07236962,10.6944643 9.07236962,12.152602 L9.07236962,93.2485867 C9.07236962,94.7071684 10.2599937,95.8927653 11.7195316,95.8927653 L149.802932,95.8927653 C151.26247,95.8927653 152.449649,94.7071684 152.449649,93.2485867 L152.449649,12.152602 C152.449649,10.6944643 151.26247,9.50842347 149.802932,9.50842347 L11.7195316,9.50842347 L11.7195316,9.50842347 Z M149.802932,97.6562908 L11.7195316,97.6562908 C9.28696835,97.6562908 7.30759494,95.6788163 7.30759494,93.2485867 L7.30759494,12.152602 C7.30759494,9.72281633 9.28696835,7.74489796 11.7195316,7.74489796 L149.802932,7.74489796 C152.235495,7.74489796 154.214868,9.72281633 154.214868,12.152602 L154.214868,93.2485867 C154.214868,95.6788163 152.235495,97.6562908 149.802932,97.6562908 L149.802932,97.6562908 Z" id="Fill-147" fill="#673AB7" mask="url(#mask-2)"></path>
                    <polygon id="Fill-148" fill="#FFFFFF" mask="url(#mask-2)" points="64.6227848 119.158163 95.5041203 119.158163 95.5041203 138.55073 64.6227848 138.55073"></polygon>
                    <path d="M65.4985076,137.662974 L94.6150684,137.662974 L94.6150684,120.033934 L65.4985076,120.033934 L65.4985076,137.662974 Z M63.7341772,118.270408 L96.3802873,118.270408 L96.3802873,139.426056 L63.7341772,139.426056 L63.7341772,118.270408 Z" id="Fill-149" fill="#673AB7" mask="url(#mask-2)"></path>
                    <path d="M118.749206,121.730434 L109.485028,121.730434 C108.510225,121.730434 107.720253,120.940776 107.720253,119.967352 L107.720253,110.712061 C107.720253,109.738194 108.510225,108.94898 109.485028,108.94898 L118.749206,108.94898 C119.724009,108.94898 120.513981,109.738194 120.513981,110.712061 L120.513981,119.967352 C120.513981,120.940776 119.724009,121.730434 118.749206,121.730434" id="Fill-150" fill="#FFFFFF" mask="url(#mask-2)"></path>
                    <path d="M109.478808,109.82475 C108.992295,109.82475 108.59642,110.219801 108.59642,110.705847 L108.59642,119.961582 C108.59642,120.447184 108.992295,120.842679 109.478808,120.842679 L118.742986,120.842679 C119.229499,120.842679 119.624929,120.447184 119.624929,119.961582 L119.624929,110.705847 C119.624929,110.219801 119.229499,109.82475 118.742986,109.82475 L109.478808,109.82475 L109.478808,109.82475 Z M118.742986,122.606204 L109.478808,122.606204 C108.018825,122.606204 106.831646,121.419719 106.831646,119.961582 L106.831646,110.705847 C106.831646,109.247709 108.018825,108.061224 109.478808,108.061224 L118.742986,108.061224 C120.202524,108.061224 121.390148,109.247709 121.390148,110.705847 L121.390148,119.961582 C121.390148,121.419719 120.202524,122.606204 118.742986,122.606204 L118.742986,122.606204 Z" id="Fill-151" fill="#673AB7" mask="url(#mask-2)"></path>
                    <path d="M144.238181,123.253976 L135.559595,126.492063 C134.646551,126.832961 133.629984,126.369552 133.288758,125.457384 L130.047562,116.787124 C129.706337,115.874955 130.17019,114.859364 131.083234,114.51891 L139.76182,111.280379 C140.674865,110.939481 141.691432,111.402889 142.032213,112.315058 L145.273853,120.985318 C145.615079,121.897486 145.151225,122.913078 144.238181,123.253976" id="Fill-152" fill="#FFFFFF" mask="url(#mask-2)"></path>
                    <path d="M140.373653,112.043694 C140.268797,112.043694 140.165275,112.062781 140.065306,112.100066 L131.38672,115.338597 C131.165901,115.420714 130.990401,115.584505 130.892654,115.798454 C130.794463,116.012403 130.786466,116.252541 130.868662,116.472704 L134.110303,125.142964 C134.274695,125.584622 134.796308,125.828311 135.245943,125.660526 L143.924085,122.421995 C144.145348,122.339434 144.320404,122.176531 144.418151,121.962582 C144.516342,121.747745 144.524339,121.508495 144.442143,121.287444 L141.200503,112.617628 C141.072099,112.27451 140.739759,112.043694 140.373653,112.043694 L140.373653,112.043694 Z M134.936708,127.479536 C133.837944,127.479536 132.841371,126.788418 132.457048,125.75951 L129.215408,117.089694 C128.968375,116.427872 128.993256,115.709679 129.287385,115.066944 C129.580625,114.424209 130.106681,113.934168 130.768694,113.686929 L139.447724,110.448398 C139.745852,110.336985 140.057309,110.280612 140.373653,110.280612 C141.472416,110.280612 142.46899,110.972173 142.853757,112.000194 L146.095397,120.670898 C146.34243,121.333163 146.317549,122.051357 146.02342,122.693648 C145.73018,123.336383 145.204124,123.826867 144.541667,124.073663 L135.863081,127.312194 C135.564509,127.423607 135.253052,127.479536 134.936708,127.479536 L134.936708,127.479536 Z" id="Fill-153" fill="#673AB7" mask="url(#mask-2)"></path>
                    <path d="M145.689123,33.3579643 L17.5265823,33.3579643 L17.5265823,18.3726582 C17.5265823,16.4253673 19.1069709,14.8469388 21.0561316,14.8469388 L142.160018,14.8469388 C144.109178,14.8469388 145.689123,16.4253673 145.689123,18.3726582 L145.689123,33.3579643" id="Fill-154" fill="#FFFFFF" mask="url(#mask-2)"></path>
                    <path d="M18.4027494,32.4702092 L144.800515,32.4702092 L144.800515,18.3668878 C144.800515,16.90875 143.613335,15.7227092 142.153797,15.7227092 L21.0499114,15.7227092 C19.5903734,15.7227092 18.4027494,16.90875 18.4027494,18.3668878 L18.4027494,32.4702092 L18.4027494,32.4702092 Z M146.565734,34.2337347 L16.6379747,34.2337347 L16.6379747,18.3668878 C16.6379747,15.9366582 18.6173481,13.9591837 21.0499114,13.9591837 L142.153797,13.9591837 C144.585916,13.9591837 146.565734,15.9366582 146.565734,18.3668878 L146.565734,34.2337347 L146.565734,34.2337347 Z" id="Fill-155" fill="#673AB7" mask="url(#mask-2)"></path>
                    <path d="M113.940506,90.5103061 L141.959192,90.5103061 C143.908353,90.5103061 145.488297,88.9318776 145.488297,86.9845867 L145.488297,33.4897959 L113.940506,33.4897959 L113.940506,90.5103061" id="Fill-156" fill="#FFFFFF" mask="url(#mask-2)"></path>
                    <path d="M114.817118,89.622551 L141.953416,89.622551 C143.412954,89.622551 144.600134,88.4365102 144.600134,86.9783724 L144.600134,34.3655663 L114.817118,34.3655663 L114.817118,89.622551 L114.817118,89.622551 Z M141.953416,91.3860765 L113.051899,91.3860765 L113.051899,32.6020408 L146.365353,32.6020408 L146.365353,86.9783724 C146.365353,89.408602 144.385535,91.3860765 141.953416,91.3860765 L141.953416,91.3860765 Z" id="Fill-157" fill="#673AB7" mask="url(#mask-2)"></path>
                    <path d="M21.0561316,90.5103061 C19.1069709,90.5103061 17.5265823,88.9318776 17.5265823,86.9845867 L17.5265823,33.4897959 L114.141332,33.4897959 L114.141332,90.5103061 L21.0561316,90.5103061 Z" id="Fill-158" fill="#FFFFFF" mask="url(#mask-2)"></path>
                    <path d="M18.4027494,34.3655663 L18.4027494,86.9783724 C18.4027494,88.4365102 19.5903734,89.6229949 21.0499114,89.6229949 L113.252724,89.6229949 L113.252724,34.3655663 L18.4027494,34.3655663 L18.4027494,34.3655663 Z M115.017499,91.3860765 L21.0499114,91.3860765 C18.6173481,91.3860765 16.6379747,89.408602 16.6379747,86.9783724 L16.6379747,32.6020408 L115.017499,32.6020408 L115.017499,91.3860765 L115.017499,91.3860765 Z" id="Fill-159" fill="#673AB7" mask="url(#mask-2)"></path>
                    <path id="Fill-160" fill="#FFFFFF" mask="url(#mask-2)"></path>
                    <path d="M139.549733,42.3553622 L117.93302,42.3553622 C117.445619,42.3553622 117.050633,41.9603112 117.050633,41.4738214 C117.050633,40.9868878 117.445619,40.5918367 117.93302,40.5918367 L139.549733,40.5918367 C140.037134,40.5918367 140.432565,40.9868878 140.432565,41.4738214 C140.432565,41.9603112 140.037134,42.3553622 139.549733,42.3553622" id="Fill-161" fill="#673AB7" mask="url(#mask-2)"></path>
                    <path id="Fill-162" fill="#FFFFFF" mask="url(#mask-2)"></path>
                    <path d="M139.549733,49.4574031 L117.93302,49.4574031 C117.445619,49.4574031 117.050633,49.062352 117.050633,48.5754184 C117.050633,48.0889286 117.445619,47.6938776 117.93302,47.6938776 L139.549733,47.6938776 C140.037134,47.6938776 140.432565,48.0889286 140.432565,48.5754184 C140.432565,49.062352 140.037134,49.4574031 139.549733,49.4574031" id="Fill-163" fill="#673AB7" mask="url(#mask-2)"></path>
                    <path id="Fill-164" fill="#FFFFFF" mask="url(#mask-2)"></path>
                    <path d="M139.549733,56.559 L117.93302,56.559 C117.445619,56.559 117.050633,56.1643929 117.050633,55.6774592 C117.050633,55.1905255 117.445619,54.7959184 117.93302,54.7959184 L139.549733,54.7959184 C140.037134,54.7959184 140.432565,55.1905255 140.432565,55.6774592 C140.432565,56.1643929 140.037134,56.559 139.549733,56.559" id="Fill-165" fill="#673AB7" mask="url(#mask-2)"></path>
                    <path id="Fill-166" fill="#FFFFFF" mask="url(#mask-2)"></path>
                    <path d="M139.549733,64.1049184 L117.93302,64.1049184 C117.445619,64.1049184 117.050633,63.7103112 117.050633,63.2233776 C117.050633,62.7364439 117.445619,62.3418367 117.93302,62.3418367 L139.549733,62.3418367 C140.037134,62.3418367 140.432565,62.7364439 140.432565,63.2233776 C140.432565,63.7103112 140.037134,64.1049184 139.549733,64.1049184" id="Fill-167" fill="#673AB7" mask="url(#mask-2)"></path>
                    <path id="Fill-168" fill="#FFFFFF" mask="url(#mask-2)"></path>
                    <path d="M139.549733,71.2074031 L117.93302,71.2074031 C117.445619,71.2074031 117.050633,70.812352 117.050633,70.3258622 C117.050633,69.8389286 117.445619,69.4438776 117.93302,69.4438776 L139.549733,69.4438776 C140.037134,69.4438776 140.432565,69.8389286 140.432565,70.3258622 C140.432565,70.812352 140.037134,71.2074031 139.549733,71.2074031" id="Fill-169" fill="#673AB7" mask="url(#mask-2)"></path>
                    <path id="Fill-170" fill="#FFFFFF" mask="url(#mask-2)"></path>
                    <path d="M139.549733,78.3094439 L117.93302,78.3094439 C117.445619,78.3094439 117.050633,77.9143929 117.050633,77.4274592 C117.050633,76.9409694 117.445619,76.5459184 117.93302,76.5459184 L139.549733,76.5459184 C140.037134,76.5459184 140.432565,76.9409694 140.432565,77.4274592 C140.432565,77.9143929 140.037134,78.3094439 139.549733,78.3094439" id="Fill-171" fill="#673AB7" mask="url(#mask-2)"></path>
                    <path d="M27.2635,21.4864592 C27.2635,22.9468163 26.0785418,24.1310816 24.6167823,24.1310816 C23.1545785,24.1310816 21.9696203,22.9468163 21.9696203,21.4864592 C21.9696203,20.026102 23.1545785,18.8418367 24.6167823,18.8418367 C26.0785418,18.8418367 27.2635,20.026102 27.2635,21.4864592" id="Fill-172" fill="#FFFFFF" mask="url(#mask-2)"></path>
                    <path d="M24.610562,19.7171633 C23.6375367,19.7171633 22.8457873,20.5077092 22.8457873,21.4802449 C22.8457873,22.4523367 23.6375367,23.2433265 24.610562,23.2433265 C25.583143,23.2433265 26.3748924,22.4523367 26.3748924,21.4802449 C26.3748924,20.5077092 25.583143,19.7171633 24.610562,19.7171633 L24.610562,19.7171633 Z M24.610562,25.0064082 C22.6645114,25.0064082 21.0810127,23.4244286 21.0810127,21.4802449 C21.0810127,19.5360612 22.6645114,17.9540816 24.610562,17.9540816 C26.5561684,17.9540816 28.1396671,19.5360612 28.1396671,21.4802449 C28.1396671,23.4244286 26.5561684,25.0064082 24.610562,25.0064082 L24.610562,25.0064082 Z" id="Fill-173" fill="#673AB7" mask="url(#mask-2)"></path>
                    <path d="M38.3710949,21.4864592 C38.3710949,22.9468163 37.1861367,24.1310816 35.7243772,24.1310816 C34.2626177,24.1310816 33.0772152,22.9468163 33.0772152,21.4864592 C33.0772152,20.026102 34.2626177,18.8418367 35.7243772,18.8418367 C37.1861367,18.8418367 38.3710949,20.026102 38.3710949,21.4864592" id="Fill-174" fill="#FFFFFF" mask="url(#mask-2)"></path>
                    <path d="M35.718157,19.7171633 C34.7451316,19.7171633 33.9533823,20.5077092 33.9533823,21.4802449 C33.9533823,22.4523367 34.7451316,23.2433265 35.718157,23.2433265 C36.6911823,23.2433265 37.4824873,22.4523367 37.4824873,21.4802449 C37.4824873,20.5077092 36.6911823,19.7171633 35.718157,19.7171633 L35.718157,19.7171633 Z M35.718157,25.0064082 C33.7721063,25.0064082 32.1886076,23.4244286 32.1886076,21.4802449 C32.1886076,19.5360612 33.7721063,17.9540816 35.718157,17.9540816 C37.6642076,17.9540816 39.247262,19.5360612 39.247262,21.4802449 C39.247262,23.4244286 37.6642076,25.0064082 35.718157,25.0064082 L35.718157,25.0064082 Z" id="Fill-175" fill="#673AB7" mask="url(#mask-2)"></path>
                    <path d="M49.0343861,21.4864592 C49.0343861,22.9468163 47.8489835,24.1310816 46.3872241,24.1310816 C44.9254646,24.1310816 43.7405063,22.9468163 43.7405063,21.4864592 C43.7405063,20.026102 44.9254646,18.8418367 46.3872241,18.8418367 C47.8489835,18.8418367 49.0343861,20.026102 49.0343861,21.4864592" id="Fill-176" fill="#FFFFFF" mask="url(#mask-2)"></path>
                    <path d="M46.3810038,19.7171633 C45.4079785,19.7171633 44.6166734,20.5077092 44.6166734,21.4802449 C44.6166734,22.4523367 45.4079785,23.2433265 46.3810038,23.2433265 C47.3540291,23.2433265 48.1457785,22.4523367 48.1457785,21.4802449 C48.1457785,20.5077092 47.3540291,19.7171633 46.3810038,19.7171633 L46.3810038,19.7171633 Z M46.3810038,25.0064082 C44.4349532,25.0064082 42.8518987,23.4244286 42.8518987,21.4802449 C42.8518987,19.5360612 44.4349532,17.9540816 46.3810038,17.9540816 C48.3270544,17.9540816 49.9105532,19.5360612 49.9105532,21.4802449 C49.9105532,23.4244286 48.3270544,25.0064082 46.3810038,25.0064082 L46.3810038,25.0064082 Z" id="Fill-177" fill="#673AB7" mask="url(#mask-2)"></path>
                    <path d="M21.4060835,82.1952689 C21.0284253,81.8876617 20.9715544,81.3323709 21.2790127,80.955075 L29.1080899,71.3535597 C29.5750532,70.7805138 30.2663899,70.4271872 31.0048228,70.3841311 C31.7450329,70.3419627 32.4714696,70.6109525 33.002857,71.1254066 L37.1815342,75.1740138 C37.3850253,75.3710954 37.6622709,75.4567638 37.941738,75.4106005 C38.2212051,75.3635495 38.4549089,75.1926566 38.5828684,74.9400903 L43.7869987,64.6949525 C44.2317468,63.8200699 45.1176886,63.2652229 46.0996,63.2474678 C47.0819557,63.2297127 47.9878911,63.7526005 48.4637405,64.6110597 L55.5521633,77.4107127 C55.8151911,77.8861056 56.2821544,77.8732331 56.419,77.8599168 C56.5558456,77.8452689 57.0143671,77.7564934 57.1694291,77.2353811 L59.2878696,70.1297893 C59.5491203,69.2549066 60.230238,68.5850954 61.1108481,68.3387434 C61.9905696,68.0919474 62.9218304,68.3112229 63.599838,68.9233301 L64.2276392,69.4897178 C64.4431266,69.6845801 64.7288139,69.7591515 65.0131684,69.6965648 C65.2966342,69.6326464 65.5232291,69.4422229 65.6343051,69.173677 L69.4108873,60.0746311 C69.8440835,59.0301872 70.8522089,58.389228 71.9842949,58.4460444 C73.1141595,58.5006413 74.0574165,59.2343709 74.3875342,60.3152127 L77.3146076,69.8958658 C77.4736684,70.4160903 77.9321899,70.5017587 78.0690354,70.5155189 C78.2054367,70.5292791 78.6724,70.5381566 78.9332063,70.0605444 L84.1715481,60.466575 C84.6362899,59.6152178 85.5253418,59.0883352 86.4948127,59.0883352 C87.4891646,59.0949934 88.3791051,59.6351923 88.8354051,60.4976464 L95.7398861,73.5538607 C95.9878076,74.0234831 96.447662,74.0301413 96.579176,74.0217076 C96.7138,74.0123862 97.1661013,73.9440291 97.3487101,73.4446668 L105.102256,52.266825 C105.270203,51.810075 105.776709,51.5761515 106.234342,51.7421617 C106.69153,51.9095036 106.927456,52.415524 106.759953,52.8727178 L99.0059633,74.0505597 C98.6411899,75.046177 97.7574696,75.7088862 96.6986937,75.7803505 C95.6394734,75.8518148 94.6748899,75.3142791 94.1794911,74.3776974 L87.2754544,61.3214831 C87.0528582,60.9002434 86.6596494,60.8523046 86.5010329,60.8514168 C86.3464152,60.8429831 85.9487633,60.8926974 85.7203911,61.3108301 L80.4820494,70.9047995 C79.9631025,71.8569168 78.9669734,72.3775852 77.8904253,72.2697229 C76.8112114,72.1596413 75.9434861,71.4472178 75.6266975,70.4107638 L72.6996241,60.8301107 C72.5316772,60.2797025 72.044276,60.2140087 71.8989886,60.2069066 C71.7528127,60.2033556 71.261857,60.2184474 71.041038,60.7502127 L67.2644557,69.8492587 C66.9352266,70.642024 66.2385582,71.2279423 65.400157,71.4165903 C64.5617557,71.6039066 63.6811456,71.3730903 63.0440139,70.7973811 L62.416657,70.2314372 C62.1869519,70.0241464 61.884381,69.9522382 61.5871418,70.0361311 C61.2890139,70.1195801 61.0677506,70.3370801 60.9793342,70.6335903 L58.8608937,77.7387382 C58.5512139,78.7778556 57.688376,79.4960495 56.609162,79.6127893 C55.5308367,79.7290852 54.5333747,79.2124117 54.0077633,78.2638454 L46.9193405,65.4646362 C46.6874139,65.0456158 46.2888734,65.0163199 46.1315899,65.0101056 C45.9720848,65.0132127 45.577543,65.0660342 45.3607228,65.4926005 L40.1565924,75.7377382 C39.7722696,76.4945495 39.0707139,77.0090036 38.232757,77.1492689 C37.3939114,77.2895342 36.5639519,77.0307536 35.9534785,76.4395087 L31.774357,72.3909015 C31.5944139,72.2169015 31.3576,72.1254627 31.1083456,72.1436617 C30.8586468,72.1583097 30.6342734,72.2728301 30.4761013,72.4668046 L22.6474684,82.0683199 C22.472857,82.2822689 22.2187152,82.3932382 21.9627962,82.3932382 C21.7668582,82.3932382 21.5695873,82.3284321 21.4060835,82.1952689 Z" id="Fill-178" fill="#673AB7" mask="url(#mask-2)"></path>
                    <path d="M257.969245,144.459184 L2.15458832,144.459184 C1.03304246,144.459184 0.123832911,145.679403 0.123832911,147.184592 L0.123832911,152.017087 C0.123832911,153.522719 1.03304246,154.742939 2.15458832,154.742939 L257.969245,154.742939 C259.09079,154.742939 260,153.522719 260,152.017087 L260,147.184592 C260,145.679403 259.09079,144.459184 257.969245,144.459184" id="Fill-181" fill="#FFFFFF" mask="url(#mask-2)"></path>
                    <path d="M3.67409101,145.334954 C2.92017241,145.334954 2.30709937,146.161898 2.30709937,147.178821 L2.30709937,152.01176 C2.30709937,153.028684 2.92017241,153.855628 3.67409101,153.855628 L258.202076,153.855628 C258.955666,153.855628 259.568739,153.028684 259.568739,152.01176 L259.568739,147.178821 C259.568739,146.161898 258.955666,145.334954 258.202076,145.334954 L3.67409101,145.334954 L3.67409101,145.334954 Z M258.202076,155.618709 L3.67409101,155.618709 C2.19949074,155.618709 1,154.000776 1,152.01176 L1,147.178821 C1,145.189806 2.19949074,143.571429 3.67409101,143.571429 L258.202076,143.571429 C259.676347,143.571429 260.876167,145.189806 260.876167,147.178821 L260.876167,152.01176 C260.876167,154.000776 259.676347,155.618709 258.202076,155.618709 L258.202076,155.618709 Z" id="Fill-182" fill="#673AB7" mask="url(#mask-2)"></path>
                    <path d="M90,460.027247 L90,166.489131" id="Line" stroke="#673AB7" stroke-width="2" stroke-linecap="round" stroke-dasharray="2,8" mask="url(#mask-2)"></path>
                    <g id="Fill-3532-+-Fill-3533" mask="url(#mask-2)" fill="#673AB7">
                        <g transform="translate(321.000000, 32.000000)">
                            <path d="M25.5852816,12.8827383 L14.2691983,23.4435716 L10.852365,20.0235716 C10.5420316,19.7069049 10.040115,19.7069049 9.73136496,20.0235716 C9.42261496,20.3244049 9.42261496,20.8310716 9.7329483,21.1477383 L13.6912816,25.1060716 C13.9936983,25.4069049 14.4781983,25.4069049 14.790115,25.1234883 L26.665115,14.0385716 C26.9849483,13.7377383 27.002365,13.2310716 26.703115,12.9144049 C26.4054483,12.5977383 25.905115,12.5819049 25.5852816,12.8827383" id="Fill-3532"></path>
                            <path d="M37.2083333,19 L36.4166667,19 C36.4166667,23.8133333 34.4675833,28.1690833 31.3151667,31.3183333 C28.1595833,34.4691667 23.8101667,36.4166667 19,36.4166667 C14.1866667,36.4166667 9.83883333,34.4691667 6.68483333,31.3183333 C3.53083333,28.1690833 1.58333333,23.8133333 1.58333333,19 C1.58333333,14.1866667 3.53083333,9.8325 6.68483333,6.68166667 C9.83883333,3.53083333 14.1866667,1.58333333 19,1.58333333 C23.8101667,1.58333333 28.1595833,3.53083333 31.3151667,6.68166667 C34.4675833,9.84833333 36.4166667,14.1866667 36.4166667,19 L38,19 C38,8.50408333 29.4911667,0 19,0 C8.50408333,0 0,8.50408333 0,19 C0,29.4975 8.50408333,38 19,38 C29.4911667,38 38,29.4975 38,19 L37.2083333,19" id="Fill-3533"></path>
                        </g>
                    </g>
                    <g id="Fill-3532-+-Fill-3533-Copy-4" mask="url(#mask-2)" fill="#673AB7">
                        <g transform="translate(322.000000, 206.000000)">
                            <path d="M25.5852816,12.8827383 L14.2691983,23.4435716 L10.852365,20.0235716 C10.5420316,19.7069049 10.040115,19.7069049 9.73136496,20.0235716 C9.42261496,20.3244049 9.42261496,20.8310716 9.7329483,21.1477383 L13.6912816,25.1060716 C13.9936983,25.4069049 14.4781983,25.4069049 14.790115,25.1234883 L26.665115,14.0385716 C26.9849483,13.7377383 27.002365,13.2310716 26.703115,12.9144049 C26.4054483,12.5977383 25.905115,12.5819049 25.5852816,12.8827383" id="Fill-3532"></path>
                            <path d="M37.2083333,19 L36.4166667,19 C36.4166667,23.8133333 34.4675833,28.1690833 31.3151667,31.3183333 C28.1595833,34.4691667 23.8101667,36.4166667 19,36.4166667 C14.1866667,36.4166667 9.83883333,34.4691667 6.68483333,31.3183333 C3.53083333,28.1690833 1.58333333,23.8133333 1.58333333,19 C1.58333333,14.1866667 3.53083333,9.8325 6.68483333,6.68166667 C9.83883333,3.53083333 14.1866667,1.58333333 19,1.58333333 C23.8101667,1.58333333 28.1595833,3.53083333 31.3151667,6.68166667 C34.4675833,9.84833333 36.4166667,14.1866667 36.4166667,19 L38,19 C38,8.50408333 29.4911667,0 19,0 C8.50408333,0 0,8.50408333 0,19 C0,29.4975 8.50408333,38 19,38 C29.4911667,38 38,29.4975 38,19 L37.2083333,19" id="Fill-3533"></path>
                        </g>
                    </g>
                    <g id="Fill-3532-+-Fill-3533-Copy-5" mask="url(#mask-2)" fill="#673AB7">
                        <g transform="translate(322.000000, 323.000000)">
                            <path d="M25.5852816,12.8827383 L14.2691983,23.4435716 L10.852365,20.0235716 C10.5420316,19.7069049 10.040115,19.7069049 9.73136496,20.0235716 C9.42261496,20.3244049 9.42261496,20.8310716 9.7329483,21.1477383 L13.6912816,25.1060716 C13.9936983,25.4069049 14.4781983,25.4069049 14.790115,25.1234883 L26.665115,14.0385716 C26.9849483,13.7377383 27.002365,13.2310716 26.703115,12.9144049 C26.4054483,12.5977383 25.905115,12.5819049 25.5852816,12.8827383" id="Fill-3532"></path>
                            <path d="M37.2083333,19 L36.4166667,19 C36.4166667,23.8133333 34.4675833,28.1690833 31.3151667,31.3183333 C28.1595833,34.4691667 23.8101667,36.4166667 19,36.4166667 C14.1866667,36.4166667 9.83883333,34.4691667 6.68483333,31.3183333 C3.53083333,28.1690833 1.58333333,23.8133333 1.58333333,19 C1.58333333,14.1866667 3.53083333,9.8325 6.68483333,6.68166667 C9.83883333,3.53083333 14.1866667,1.58333333 19,1.58333333 C23.8101667,1.58333333 28.1595833,3.53083333 31.3151667,6.68166667 C34.4675833,9.84833333 36.4166667,14.1866667 36.4166667,19 L38,19 C38,8.50408333 29.4911667,0 19,0 C8.50408333,0 0,8.50408333 0,19 C0,29.4975 8.50408333,38 19,38 C29.4911667,38 38,29.4975 38,19 L37.2083333,19" id="Fill-3533"></path>
                        </g>
                    </g>
                    <g id="Fill-3532-+-Fill-3533-Copy-6" mask="url(#mask-2)" fill="#673AB7">
                        <g transform="translate(321.000000, 441.000000)">
                            <path d="M25.5852816,12.8827383 L14.2691983,23.4435716 L10.852365,20.0235716 C10.5420316,19.7069049 10.040115,19.7069049 9.73136496,20.0235716 C9.42261496,20.3244049 9.42261496,20.8310716 9.7329483,21.1477383 L13.6912816,25.1060716 C13.9936983,25.4069049 14.4781983,25.4069049 14.790115,25.1234883 L26.665115,14.0385716 C26.9849483,13.7377383 27.002365,13.2310716 26.703115,12.9144049 C26.4054483,12.5977383 25.905115,12.5819049 25.5852816,12.8827383" id="Fill-3532"></path>
                            <path d="M37.2083333,19 L36.4166667,19 C36.4166667,23.8133333 34.4675833,28.1690833 31.3151667,31.3183333 C28.1595833,34.4691667 23.8101667,36.4166667 19,36.4166667 C14.1866667,36.4166667 9.83883333,34.4691667 6.68483333,31.3183333 C3.53083333,28.1690833 1.58333333,23.8133333 1.58333333,19 C1.58333333,14.1866667 3.53083333,9.8325 6.68483333,6.68166667 C9.83883333,3.53083333 14.1866667,1.58333333 19,1.58333333 C23.8101667,1.58333333 28.1595833,3.53083333 31.3151667,6.68166667 C34.4675833,9.84833333 36.4166667,14.1866667 36.4166667,19 L38,19 C38,8.50408333 29.4911667,0 19,0 C8.50408333,0 0,8.50408333 0,19 C0,29.4975 8.50408333,38 19,38 C29.4911667,38 38,29.4975 38,19 L37.2083333,19" id="Fill-3533"></path>
                        </g>
                    </g>
                </g>
            </g>
        </g>
    </g>
</svg>