<?xml version="1.0" encoding="UTF-8" standalone="no"?>
<svg width="136px" height="27px" viewBox="0 0 136 27" version="1.1" xmlns="http://www.w3.org/2000/svg" xmlns:xlink="http://www.w3.org/1999/xlink" xmlns:sketch="http://www.bohemiancoding.com/sketch/ns">
    <!-- Generator: sketchtool 3.4 (356) - http://www.bohemiancoding.com/sketch -->
    <title>smartcat logo</title>
    <desc>Created with sketchtool.</desc>
    <defs></defs>
    <g id="feachures" stroke="none" stroke-width="1" fill="none" fill-rule="evenodd" sketch:type="MSPage">
        <g id="Desktop-Landscape-Copy-6" sketch:type="MSArtboardGroup" transform="translate(-38.000000, -25.000000)" fill="#FFFFFF">
            <g id="Шапка" sketch:type="MSLayerGroup" transform="translate(38.000000, 25.000000)">
                <g id="smartcat-logo" sketch:type="MSShapeGroup">
                    <path d="M5.66919654,17.696764 L5.66919654,19.5020517 C5.66919654,20.9666787 6.15568227,22.2620451 8.10332364,22.2620451 C9.52832647,22.2620451 10.1548133,21.0009112 10.1548133,19.7067334 C10.1548133,17.560785 8.34741573,16.7432469 6.74747214,15.7885412 C4.86971002,14.7332775 3.26976643,13.7452902 2.12282476,12.4499238 C1.0093669,11.155746 0.348910962,9.58818387 0.348910962,7.33930034 C0.348910962,2.53605597 3.30494869,0.0824907595 8.03465757,0.0824907595 C13.3547005,0.0824907595 16.0666461,3.55827576 15.7890702,8.36152012 L10.1548133,8.36152012 C10.0849341,6.86242292 10.1548133,4.81822108 8.1385059,4.68224207 C6.88747327,4.58049554 6.15689545,5.26181692 6.01689432,6.38578323 C5.84292411,7.91887518 6.64241063,8.70218081 7.85947418,9.51948119 C10.1548133,10.9510643 12.1364238,11.8361165 13.5623972,13.1314829 C14.9871574,14.4256607 15.8227967,16.1292019 15.8227967,19.2300937 C15.8227967,24.1372241 13.0407292,26.8629851 7.96332251,26.8629851 C2.36424785,26.8629851 0,23.7965634 0,20.422525 L0,17.6979527 L5.66919654,17.696764" id="Fill-1"></path>
                    <path d="M23.3018172,7.16885113 L23.3018172,9.38350218 L23.3719391,9.38350218 C24.2762445,7.64572855 26.0140055,6.72644392 27.5088875,6.62350876 C29.2825587,6.52176223 30.9863506,7.54398202 31.6118669,9.14458803 L31.6817462,9.14458803 C32.6901425,7.44104687 34.1510555,6.62350876 35.7148463,6.62350876 C38.3229436,6.62350876 40.653465,8.02062171 40.653465,10.6104037 L40.653465,26.24894 L35.1230565,26.24894 L35.1230565,12.620373 C35.0543904,11.73437 34.70645,10.9852968 33.6621434,11.0528109 C32.6889294,11.0870433 32.1672614,11.6326234 32.1672614,12.620373 L32.1672614,26.24894 L26.638066,26.24894 L26.638066,12.620373 C26.4643384,11.8028349 26.2554286,11.0528109 25.3171541,11.0528109 C24.2039389,11.0528109 23.7523928,11.5981532 23.6822709,12.620373 L23.6822709,26.24894 L18.1533181,26.24894 L18.1533181,7.16885113 L23.3018172,7.16885113" id="Fill-3"></path>
                    <path d="M52.4106483,16.9809725 C51.2974331,17.560785 50.3239764,17.8672132 49.6285808,18.3768968 C48.9331852,18.8549628 48.3413954,19.5365219 48.3413954,20.8306997 C48.3413954,22.023131 49.0719732,22.8749016 50.3916719,22.8749016 C52.0265551,22.8749016 52.3744955,21.2055929 52.4094351,19.9777405 L52.4094351,16.9809725 L52.4106483,16.9809725 L52.4106483,16.9809725 Z M52.618345,24.5453989 C51.2273112,26.0430697 50.0451873,26.8617964 47.8549096,26.8617964 C44.7249017,26.8617964 42.7784735,24.7831244 42.7784735,21.7509352 C42.7784735,17.4245683 45.1779036,16.0607369 47.6108176,15.2774313 C50.0102477,14.4943634 52.4106483,14.2552115 52.4106483,12.2110097 C52.4106483,11.1545574 51.7839188,10.2352728 50.6719168,10.2352728 C48.6553667,10.2352728 48.6553667,11.5981532 48.5503052,13.1999479 L43.0213524,13.1999479 C42.7784735,8.42998508 46.0472694,6.62469739 50.4979466,6.62469739 C55.9570201,6.62469739 57.9396011,8.25953587 57.9396011,12.4511124 L57.9396011,24.1372241 C57.9396011,24.8518271 58.1485109,25.5688073 58.3911472,26.24894 L53.0009824,26.24894 L52.618345,24.5453989 L52.618345,24.5453989 Z" id="Fill-4"></path>
                    <path d="M65.9390764,7.16885113 L65.9390764,10.0650613 L66.0091983,10.0650613 C66.6359278,8.02062171 67.9908087,6.62350876 70.2861479,6.62350876 L70.2861479,12.756352 C69.7295403,12.6546055 69.1729327,12.620373 68.6172956,12.620373 C67.0525343,12.620373 66.427018,12.9268012 66.3219564,14.4943634 L66.3219564,26.24894 L60.7930037,26.24894 L60.7930037,7.16885113 L65.9390764,7.16885113" id="Fill-6"></path>
                    <path d="M71.3304544,11.0870433 L71.3304544,7.16885113 L73.5209747,7.16885113 L73.5209747,1.71756697 L79.0499275,1.71756697 L79.0499275,7.16885113 L81.693207,7.16885113 L81.693207,11.0870433 L79.0499275,11.0870433 L79.0499275,21.1383165 C79.0499275,22.2290013 79.537869,22.4679154 80.266991,22.4679154 C80.8925073,22.3661689 81.1014172,22.3994505 81.6919938,22.3994505 L81.6919938,26.2158962 C80.5086567,26.3861077 79.3614724,26.5223244 78.1444089,26.5223244 C75.1534315,26.5223244 73.5197615,25.0244158 73.5197615,22.1284434 L73.5197615,11.0870433 L71.3304544,11.0870433" id="Fill-7"></path>
                    <path d="M94.2811769,9.62265407 L94.2811769,7.98757786 C94.2811769,5.80715929 93.4816904,4.68224207 92.3347487,4.68224207 C90.422047,4.6489605 89.9705009,5.66999165 89.9705009,7.33930034 L89.9353186,19.9789291 C89.9353186,21.4102746 90.5271085,22.2620451 92.1258389,22.2620451 C94.2122682,22.2620451 94.3862384,20.1491406 94.3862384,18.5827671 L94.3862384,16.2663695 L100.506738,16.2663695 L100.506738,19.4003052 C100.506738,23.7965634 97.9338234,26.8629851 91.6740502,26.8629851 C86.0400359,26.8629851 83.8497582,23.9325424 83.8497582,18.7189838 L83.8497582,8.22530339 C83.8497582,2.6722727 86.4578555,0.0824907595 92.055717,0.0824907595 C97.2721543,0.0824907595 100.40192,2.26290934 100.40192,7.47646797 L100.40192,9.62265407 L94.2811769,9.62265407" id="Fill-9"></path>
                    <path d="M111.533587,5.32933097 L111.463465,5.32933097 L109.691007,16.7762908 L113.238592,16.7762908 L111.533587,5.32933097 L111.533587,5.32933097 Z M102.143077,26.24894 L107.847214,0.69534718 L115.218746,0.69534718 L120.88673,26.24894 L114.697078,26.24894 L113.827712,21.2754842 L109.029338,21.2754842 L108.29876,26.24894 L102.143077,26.24894 L102.143077,26.24894 Z" id="Fill-11"></path>
                    <path d="M120.01979,0.69534718 L135.876313,0.69534718 L135.876313,5.80597066 L130.938908,5.80597066 L130.938908,26.24894 L124.818165,26.24894 L124.818165,5.80597066 L120.01979,5.80597066 L120.01979,0.69534718" id="Fill-12"></path>
                </g>
            </g>
        </g>
    </g>
</svg>